<?xml version="1.0" encoding="utf-8"?>
<!-- Generator: Adobe Illustrator 27.5.0, SVG Export Plug-In . SVG Version: 6.00 Build 0)  -->
<svg version="1.1" id="Layer_1" xmlns="http://www.w3.org/2000/svg" xmlns:xlink="http://www.w3.org/1999/xlink" x="0px" y="0px"
	 viewBox="-24.062 -92.32 83.736 73.248" style="enable-background:new -24.062 -92.32 83.736 73.248;" xml:space="preserve">
<rect x="-24.062" y="-92.321" style="fill:#FFFFFF;" width="83.736" height="73.25"/>
<g>
	<g>
		<g>
			<path style="fill:#63635A;" d="M9.806-32.977c0.145-0.084,0.314-0.117,0.502-0.117c0.393,0,0.593,0.195,0.593,0.588v0.844h-0.13
				v-0.234l-0.011,0.008c-0.007,0.004-0.011,0.014-0.022,0.029c-0.009,0.006-0.021,0.018-0.029,0.033
				c-0.019,0.014-0.026,0.031-0.051,0.043c-0.017,0.016-0.038,0.029-0.056,0.047c-0.022,0.018-0.048,0.031-0.075,0.043
				c-0.029,0.016-0.06,0.031-0.086,0.041c-0.032,0.002-0.066,0.012-0.101,0.025c-0.038,0.008-0.074,0.008-0.115,0.008
				c-0.174,0-0.309-0.051-0.405-0.135c-0.1-0.092-0.149-0.205-0.149-0.338c0-0.139,0.057-0.244,0.167-0.32
				c0.112-0.086,0.254-0.129,0.433-0.129h0.488c0-0.211-0.077-0.348-0.253-0.406c-0.049-0.016-0.106-0.025-0.171-0.025
				c-0.063,0-0.12,0-0.175,0.01c-0.055,0.006-0.1,0.016-0.134,0.025c-0.037,0.012-0.064,0.021-0.088,0.033
				c-0.021,0.008-0.04,0.021-0.058,0.031c-0.022,0.014-0.027,0.018-0.035,0.018L9.806-32.977z M10.771-32.252
				c0-0.086,0-0.139,0-0.158c-0.033,0-0.07,0-0.107,0c-0.044,0-0.083,0-0.121,0c-0.036,0-0.081,0-0.136,0
				c-0.124,0-0.229,0.006-0.316,0.02c-0.085,0.016-0.157,0.053-0.202,0.104c-0.018,0.025-0.034,0.047-0.045,0.072
				C9.831-32.176,9.822-32.137,9.82-32.1c-0.007,0.039,0.002,0.08,0.013,0.121c0.014,0.041,0.037,0.074,0.066,0.111
				c0.029,0.025,0.068,0.055,0.128,0.078c0.054,0.021,0.126,0.035,0.203,0.035c0.056,0,0.106-0.004,0.152-0.02
				c0.044-0.01,0.084-0.021,0.117-0.031c0.036-0.016,0.063-0.037,0.093-0.049c0.028-0.021,0.05-0.043,0.064-0.063
				c0.023-0.021,0.035-0.037,0.054-0.063c0.008-0.021,0.019-0.041,0.026-0.061c0.003-0.022,0.017-0.037,0.018-0.053
				c0.007-0.018,0.007-0.029,0.017-0.045C10.771-32.137,10.771-32.176,10.771-32.252z"/>
			<path style="fill:#63635A;" d="M12.315-33.075h0.493v0.117h-0.493v0.676v0.008v0.014c0,0.012,0,0.039,0,0.068
				c-0.002,0.041-0.002,0.063-0.002,0.08c0,0.02,0.002,0.039,0.002,0.07c0,0.027,0.008,0.055,0.01,0.068
				c0.009,0.024,0.02,0.035,0.022,0.063c0.017,0.022,0.025,0.043,0.044,0.057c0.091,0.104,0.233,0.117,0.42,0.049l0.009,0.127
				l-0.026,0.004c-0.007,0.004-0.021,0.004-0.027,0.012c-0.008,0-0.019,0-0.04,0.01c-0.017,0.002-0.034,0.002-0.046,0.002
				c-0.014,0.01-0.036,0.01-0.056,0.01c-0.024,0-0.049,0-0.063,0c-0.02,0-0.042-0.01-0.064-0.012
				c-0.022-0.01-0.042-0.01-0.064-0.021c-0.022-0.012-0.042-0.02-0.066-0.033c-0.022-0.012-0.042-0.033-0.066-0.051
				c-0.036-0.037-0.066-0.096-0.09-0.162c-0.017-0.088-0.03-0.135-0.033-0.172c0-0.039,0-0.1,0-0.168v-0.021v-0.676h-0.203v-0.117
				h0.203v-0.461h0.137V-33.075z"/>
			<path style="fill:#63635A;" d="M13.068-32.977c0.151-0.084,0.315-0.117,0.505-0.117c0.394,0,0.592,0.195,0.592,0.588v0.844
				h-0.137v-0.234l-0.008,0.008c-0.006,0.004-0.006,0.014-0.022,0.029c-0.009,0.006-0.014,0.018-0.031,0.033
				c-0.01,0.014-0.027,0.031-0.043,0.043c-0.019,0.016-0.039,0.029-0.061,0.047c-0.024,0.018-0.046,0.031-0.074,0.043
				c-0.028,0.016-0.058,0.031-0.088,0.041c-0.027,0.002-0.061,0.012-0.098,0.025c-0.036,0.008-0.08,0.008-0.115,0.008
				c-0.171,0-0.308-0.051-0.404-0.135c-0.098-0.092-0.15-0.205-0.15-0.338c0-0.139,0.052-0.244,0.169-0.32
				c0.11-0.086,0.252-0.129,0.431-0.129h0.488c0-0.211-0.083-0.348-0.252-0.406c-0.046-0.016-0.104-0.025-0.171-0.025
				c-0.065,0-0.125,0-0.177,0.01c-0.052,0.006-0.1,0.016-0.135,0.025c-0.034,0.012-0.061,0.021-0.085,0.033
				c-0.022,0.008-0.04,0.021-0.062,0.031c-0.014,0.014-0.022,0.018-0.025,0.018L13.068-32.977z M14.033-32.252
				c0-0.086,0-0.139,0-0.158c-0.035,0-0.068,0-0.109,0c-0.039,0-0.077,0-0.115,0c-0.039,0-0.085,0-0.142,0
				c-0.122,0-0.226,0.006-0.312,0.02c-0.09,0.016-0.159,0.053-0.206,0.104c-0.017,0.025-0.032,0.047-0.046,0.072
				c-0.012,0.039-0.017,0.078-0.019,0.115c-0.005,0.039,0,0.08,0.009,0.121c0.018,0.041,0.04,0.074,0.064,0.111
				c0.031,0.025,0.074,0.055,0.129,0.078c0.059,0.021,0.123,0.035,0.208,0.035c0.057,0,0.103-0.004,0.148-0.02
				c0.044-0.01,0.083-0.021,0.118-0.031c0.036-0.016,0.066-0.037,0.092-0.049c0.027-0.021,0.052-0.043,0.071-0.063
				c0.016-0.021,0.03-0.037,0.043-0.063c0.017-0.021,0.022-0.041,0.031-0.061c0.011-0.022,0.016-0.037,0.016-0.053
				c0.006-0.018,0.009-0.029,0.014-0.045C14.03-32.137,14.033-32.176,14.033-32.252z"/>
			<path style="fill:#63635A;" d="M15.935-31.885L15.935-31.885c-0.005,0.039-0.007,0.09-0.017,0.166
				c-0.008,0.057-0.03,0.117-0.066,0.172c-0.038,0.061-0.087,0.117-0.142,0.166c-0.061,0.049-0.129,0.09-0.213,0.123
				c-0.083,0.039-0.169,0.053-0.26,0.053c-0.184,0-0.359-0.053-0.538-0.141v-0.176c0.115,0.123,0.286,0.189,0.529,0.189
				c0.077,0,0.146-0.014,0.206-0.035c0.061-0.021,0.105-0.041,0.14-0.066c0.042-0.019,0.074-0.059,0.102-0.103
				c0.035-0.041,0.054-0.072,0.065-0.104c0.017-0.033,0.025-0.066,0.036-0.113c0.013-0.041,0.014-0.066,0.014-0.088
				c0.003-0.006,0.003-0.024,0.005-0.047V-32.1c-0.024,0.039-0.055,0.074-0.085,0.107c-0.035,0.039-0.074,0.072-0.118,0.107
				c-0.052,0.031-0.101,0.065-0.169,0.08c-0.066,0.021-0.128,0.031-0.196,0.031c-0.081,0-0.152-0.016-0.238-0.039
				c-0.076-0.033-0.148-0.072-0.222-0.125c-0.069-0.055-0.126-0.123-0.154-0.213c-0.049-0.09-0.063-0.188-0.063-0.301
				c0-0.111,0.019-0.205,0.063-0.301c0.049-0.104,0.123-0.184,0.23-0.254c0.101-0.068,0.216-0.109,0.339-0.109
				c0.074,0,0.142,0.014,0.208,0.027c0.061,0.02,0.105,0.035,0.146,0.055c0.043,0.022,0.077,0.053,0.121,0.086
				c0.035,0.031,0.062,0.064,0.076,0.078c0.014,0.02,0.031,0.045,0.049,0.07c0.006,0.008,0.009,0.02,0.011,0.02v-0.295h0.14V-31.885
				z M15.228-31.897c0.146,0,0.277-0.053,0.397-0.15c0.119-0.115,0.178-0.234,0.178-0.387c0-0.148-0.06-0.283-0.178-0.391
				c-0.12-0.111-0.251-0.166-0.397-0.166c-0.154,0-0.284,0.055-0.392,0.162c-0.106,0.101-0.162,0.236-0.162,0.385
				c0,0.146,0.056,0.281,0.162,0.389C14.943-31.95,15.074-31.897,15.228-31.897z"/>
			<path style="fill:#63635A;" d="M16.486-32.297v0.016v0.008c0,0.012-0.003,0.033-0.005,0.082c-0.001,0.055-0.001,0.09,0,0.102
				c0.002,0.014,0.008,0.043,0.011,0.076c0.005,0.035,0.012,0.065,0.019,0.084c0.017,0.021,0.03,0.045,0.05,0.068
				c0.084,0.104,0.23,0.117,0.418,0.049l0.008,0.119c-0.027,0.008-0.047,0.016-0.052,0.02c-0.008,0.002-0.025,0.004-0.042,0.012
				c-0.013,0-0.035,0-0.046,0c-0.013,0.01-0.036,0.01-0.055,0.01c-0.025,0.002-0.042,0-0.061,0c-0.022-0.01-0.044-0.01-0.067-0.01
				c-0.02-0.008-0.042-0.012-0.064-0.024c-0.019-0.008-0.04-0.019-0.063-0.033c-0.021-0.018-0.044-0.035-0.063-0.055
				c-0.029-0.021-0.054-0.047-0.066-0.082c-0.021-0.041-0.03-0.074-0.042-0.113c-0.004-0.039-0.009-0.07-0.015-0.107
				c-0.004-0.041-0.011-0.078-0.004-0.102c0-0.039,0-0.063-0.006-0.096v-0.023v-1.398h0.146V-32.297z"/>
			<path style="fill:#63635A;" d="M17.295-33.512h0.186v0.232h-0.186V-33.512z M17.456-32.813v-0.262h-0.134v1.412h0.134V-32.813z"
				/>
			<path style="fill:#63635A;" d="M18.008-31.663h-0.135v-1.412h0.135v0.24c0.112-0.184,0.276-0.281,0.475-0.281
				c0.195,0,0.345,0.055,0.447,0.168c0.105,0.107,0.154,0.256,0.154,0.449v0.836h-0.137v-0.779c0-0.357-0.16-0.539-0.483-0.541
				c-0.216,0-0.362,0.123-0.457,0.367V-31.663z"/>
			<path style="fill:#63635A;" d="M19.626-32.313c0.008,0.06,0.019,0.121,0.039,0.182c0.031,0.076,0.074,0.139,0.127,0.193
				c0.047,0.063,0.109,0.102,0.186,0.133c0.074,0.031,0.148,0.051,0.226,0.051c0.088,0,0.168-0.02,0.232-0.051
				c0.049-0.016,0.092-0.049,0.127-0.076v0.156c-0.027,0.018-0.045,0.025-0.072,0.031c-0.088,0.043-0.188,0.066-0.295,0.066
				c-0.104,0-0.197-0.023-0.285-0.063c-0.09-0.035-0.168-0.094-0.229-0.156c-0.066-0.07-0.117-0.146-0.154-0.234
				c-0.031-0.092-0.057-0.182-0.057-0.289v-0.002c0-0.096,0.025-0.191,0.057-0.281c0.037-0.084,0.088-0.166,0.154-0.236
				c0.063-0.068,0.145-0.123,0.23-0.164c0.092-0.041,0.19-0.063,0.291-0.063c0.047,0,0.092,0.014,0.146,0.025
				c0.043,0.016,0.096,0.043,0.148,0.078c0.059,0.039,0.109,0.09,0.148,0.142c0.047,0.057,0.082,0.135,0.111,0.233
				c0.031,0.096,0.043,0.203,0.041,0.324H19.626z M20.197-32.983c-0.08,0-0.154,0.02-0.225,0.047
				c-0.08,0.031-0.137,0.078-0.186,0.129c-0.053,0.061-0.09,0.121-0.121,0.191c-0.02,0.066-0.031,0.117-0.039,0.182h1.031
				c0-0.033-0.014-0.102-0.041-0.189c-0.019-0.061-0.047-0.113-0.07-0.156c-0.029-0.045-0.061-0.078-0.084-0.104
				c-0.025-0.021-0.059-0.043-0.09-0.055c-0.043-0.02-0.072-0.025-0.088-0.035c-0.014,0-0.041-0.008-0.068-0.008
				C20.208-32.981,20.205-32.983,20.197-32.983z"/>
			<path style="fill:#63635A;" d="M23.312-31.885H23.31c0,0.039-0.012,0.09-0.018,0.166c-0.006,0.057-0.025,0.117-0.064,0.172
				c-0.037,0.061-0.082,0.117-0.143,0.166c-0.061,0.049-0.123,0.09-0.215,0.123c-0.078,0.039-0.166,0.053-0.256,0.053
				c-0.184,0-0.359-0.053-0.541-0.141v-0.176c0.109,0.123,0.287,0.189,0.529,0.189c0.078,0,0.142-0.014,0.197-0.035
				c0.068-0.021,0.113-0.041,0.15-0.066c0.035-0.019,0.074-0.059,0.1-0.103c0.035-0.041,0.049-0.072,0.065-0.104
				c0.014-0.033,0.031-0.066,0.039-0.113c0.006-0.041,0.012-0.066,0.018-0.088c0-0.006,0-0.024,0-0.047V-32.1
				c-0.02,0.039-0.057,0.074-0.086,0.107c-0.035,0.039-0.074,0.072-0.117,0.107c-0.055,0.031-0.107,0.065-0.172,0.08
				c-0.066,0.021-0.121,0.031-0.195,0.031c-0.076,0-0.152-0.016-0.234-0.039c-0.074-0.033-0.152-0.072-0.225-0.125
				c-0.068-0.055-0.121-0.123-0.164-0.213c-0.035-0.09-0.057-0.188-0.057-0.301c0-0.111,0.027-0.205,0.074-0.301
				c0.041-0.104,0.119-0.184,0.225-0.254c0.102-0.068,0.217-0.109,0.344-0.109c0.068,0,0.133,0.014,0.199,0.027
				c0.063,0.02,0.115,0.035,0.15,0.055c0.049,0.022,0.08,0.053,0.113,0.086c0.039,0.031,0.066,0.064,0.078,0.078
				c0.014,0.02,0.031,0.045,0.055,0.07c0.006,0.008,0.012,0.02,0.012,0.02v-0.295h0.141V-31.885z M22.595-31.897
				c0.15,0,0.283-0.053,0.408-0.15c0.115-0.115,0.172-0.234,0.172-0.387c0-0.148-0.057-0.283-0.172-0.391
				c-0.125-0.111-0.258-0.166-0.408-0.166c-0.146,0-0.279,0.055-0.387,0.162c-0.105,0.101-0.154,0.236-0.154,0.385
				c0,0.146,0.049,0.281,0.154,0.389C22.316-31.95,22.449-31.897,22.595-31.897z"/>
			<path style="fill:#63635A;" d="M24.425-31.627c-0.105,0-0.203-0.023-0.293-0.063c-0.078-0.035-0.162-0.094-0.227-0.156
				c-0.066-0.07-0.117-0.146-0.152-0.234c-0.035-0.092-0.053-0.182-0.053-0.289v-0.002c0-0.096,0.018-0.191,0.053-0.281
				c0.035-0.084,0.086-0.166,0.152-0.236c0.064-0.068,0.148-0.123,0.227-0.164c0.098-0.041,0.195-0.063,0.301-0.063
				c0.102,0,0.195,0.022,0.289,0.063c0.09,0.041,0.164,0.094,0.225,0.16c0.068,0.068,0.119,0.147,0.156,0.236
				c0.033,0.08,0.047,0.182,0.047,0.279v0.006c0,0.098-0.014,0.195-0.047,0.281c-0.037,0.09-0.088,0.17-0.156,0.242
				c-0.061,0.065-0.143,0.123-0.225,0.158C24.626-31.651,24.529-31.627,24.425-31.627z M24.433-31.754
				c0.078,0,0.156-0.02,0.236-0.051c0.062-0.037,0.127-0.076,0.174-0.133c0.053-0.055,0.1-0.117,0.119-0.193
				c0.033-0.072,0.049-0.15,0.049-0.238v-0.002c0-0.08-0.016-0.164-0.049-0.244c-0.027-0.07-0.072-0.137-0.123-0.197
				c-0.047-0.047-0.107-0.092-0.186-0.125c-0.07-0.025-0.15-0.045-0.229-0.045c-0.082,0-0.162,0.02-0.232,0.047
				c-0.072,0.031-0.135,0.078-0.188,0.129c-0.039,0.061-0.088,0.121-0.121,0.191c-0.023,0.074-0.037,0.156-0.037,0.238v0.006
				c0,0.09,0.014,0.168,0.045,0.24c0.029,0.076,0.074,0.139,0.123,0.193c0.045,0.063,0.117,0.102,0.185,0.133
				C24.273-31.774,24.345-31.754,24.433-31.754z"/>
			<path style="fill:#63635A;" d="M25.683-32.313c0.012,0.06,0.025,0.121,0.051,0.182c0.023,0.076,0.068,0.139,0.125,0.193
				c0.041,0.063,0.113,0.102,0.184,0.133c0.068,0.031,0.148,0.051,0.219,0.051c0.092,0,0.168-0.02,0.236-0.051
				c0.053-0.016,0.094-0.049,0.137-0.076v0.156c-0.031,0.018-0.059,0.025-0.072,0.031c-0.092,0.043-0.195,0.066-0.301,0.066
				c-0.104,0-0.199-0.023-0.289-0.063c-0.088-0.035-0.162-0.094-0.225-0.156c-0.066-0.07-0.117-0.146-0.156-0.234
				c-0.033-0.092-0.057-0.182-0.057-0.289v-0.002c0-0.096,0.023-0.191,0.057-0.281c0.039-0.084,0.09-0.166,0.156-0.236
				c0.063-0.068,0.145-0.123,0.231-0.164c0.086-0.041,0.18-0.063,0.283-0.063c0.055,0,0.101,0.014,0.145,0.025
				c0.047,0.016,0.102,0.043,0.16,0.078c0.049,0.039,0.102,0.09,0.146,0.142c0.049,0.057,0.084,0.135,0.113,0.233
				c0.025,0.096,0.041,0.203,0.041,0.324H25.683z M26.261-32.983c-0.078,0-0.158,0.02-0.229,0.047
				c-0.072,0.031-0.133,0.078-0.189,0.129c-0.041,0.061-0.086,0.121-0.109,0.191c-0.025,0.066-0.039,0.117-0.051,0.182h1.039
				c0-0.033-0.02-0.102-0.035-0.189c-0.025-0.061-0.053-0.113-0.074-0.156c-0.037-0.045-0.063-0.078-0.088-0.104
				c-0.027-0.021-0.055-0.043-0.096-0.055c-0.035-0.02-0.063-0.025-0.084-0.035c-0.018,0-0.037-0.008-0.066-0.008
				C26.271-32.981,26.261-32.983,26.261-32.983z"/>
			<path style="fill:#63635A;" d="M28.042-32.834c-0.01-0.006-0.029-0.023-0.053-0.035c-0.021-0.014-0.065-0.035-0.133-0.057
				c-0.068-0.031-0.131-0.037-0.189-0.055c-0.051-0.01-0.125,0-0.188,0.022c-0.07,0.021-0.125,0.055-0.17,0.119
				c-0.037,0.066-0.043,0.129-0.019,0.188c0.037,0.055,0.082,0.09,0.146,0.111c0.07,0.025,0.143,0.051,0.231,0.082
				c0.08,0.031,0.162,0.055,0.242,0.088c0.066,0.029,0.133,0.072,0.178,0.131c0.047,0.065,0.065,0.131,0.057,0.221
				c-0.01,0.111-0.047,0.207-0.123,0.266c-0.066,0.06-0.142,0.101-0.238,0.113c-0.096,0.014-0.189,0-0.287-0.01
				c-0.094-0.019-0.182-0.043-0.256-0.068c-0.074-0.035-0.129-0.07-0.152-0.101l0.066-0.117c0.012,0.008,0.043,0.027,0.076,0.045
				c0.033,0.02,0.088,0.047,0.18,0.08c0.098,0.039,0.17,0.055,0.246,0.055c0.123,0,0.207-0.031,0.269-0.084
				c0.051-0.051,0.08-0.127,0.08-0.213c0-0.055-0.029-0.1-0.074-0.144c-0.045-0.033-0.111-0.063-0.172-0.088
				c-0.066-0.024-0.143-0.049-0.25-0.07c-0.133-0.029-0.236-0.086-0.305-0.172c-0.066-0.086-0.09-0.184-0.051-0.289
				c0.029-0.102,0.098-0.18,0.205-0.234c0.102-0.049,0.211-0.07,0.324-0.049c0.064,0.008,0.133,0.027,0.205,0.049
				c0.066,0.029,0.125,0.055,0.166,0.076l0.057,0.031L28.042-32.834z"/>
			<path style="fill:#63635A;" d="M29.4-32.825c0.02-0.031,0.039-0.059,0.072-0.086c0.016-0.027,0.055-0.063,0.096-0.092
				c0.041-0.033,0.096-0.059,0.156-0.082c0.055-0.018,0.133-0.031,0.203-0.031c0.094,0,0.178,0.022,0.26,0.055
				c0.07,0.045,0.133,0.088,0.17,0.152c0.041,0.059,0.072,0.129,0.096,0.191c0.019,0.074,0.027,0.141,0.027,0.219v0.836h-0.137
				v-0.805c0-0.014,0-0.024,0-0.039c0-0.006-0.006-0.035-0.006-0.07c-0.012-0.039-0.012-0.066-0.017-0.102
				c-0.01-0.033-0.023-0.066-0.043-0.113c-0.025-0.033-0.053-0.066-0.08-0.092c-0.029-0.033-0.076-0.055-0.131-0.074
				c-0.051-0.023-0.107-0.033-0.176-0.033c-0.217,0-0.373,0.117-0.49,0.348v0.981h-0.137v-2.033H29.4V-32.825z"/>
			<path style="fill:#63635A;" d="M31.023-32.313c0.008,0.06,0.025,0.121,0.043,0.182c0.033,0.076,0.072,0.139,0.125,0.193
				c0.051,0.063,0.111,0.102,0.18,0.133c0.076,0.031,0.15,0.051,0.238,0.051c0.078,0,0.156-0.02,0.228-0.051
				c0.045-0.016,0.084-0.049,0.131-0.076v0.156c-0.023,0.018-0.059,0.025-0.076,0.031c-0.098,0.043-0.188,0.066-0.295,0.066
				c-0.103,0-0.195-0.023-0.289-0.063c-0.086-0.035-0.162-0.094-0.232-0.156c-0.07-0.07-0.115-0.146-0.146-0.234
				c-0.035-0.092-0.055-0.182-0.055-0.289v-0.002c0-0.096,0.02-0.191,0.055-0.281c0.031-0.084,0.076-0.166,0.146-0.236
				c0.07-0.068,0.146-0.123,0.24-0.164c0.086-0.041,0.184-0.063,0.293-0.063c0.041,0,0.088,0.014,0.137,0.025
				c0.047,0.016,0.092,0.043,0.15,0.078c0.065,0.039,0.115,0.09,0.156,0.142c0.039,0.057,0.074,0.135,0.113,0.233
				c0.027,0.096,0.033,0.203,0.033,0.324H31.023z M31.597-32.983c-0.08,0-0.154,0.02-0.234,0.047
				c-0.066,0.031-0.123,0.078-0.178,0.129c-0.053,0.061-0.094,0.121-0.119,0.191c-0.018,0.066-0.035,0.117-0.043,0.182h1.033
				c-0.004-0.033-0.014-0.102-0.041-0.189c-0.014-0.061-0.041-0.113-0.07-0.156c-0.035-0.045-0.059-0.078-0.084-0.104
				c-0.029-0.021-0.061-0.043-0.096-0.055c-0.031-0.02-0.061-0.025-0.078-0.035c-0.021,0-0.041-0.008-0.064-0.008
				C31.609-32.981,31.601-32.983,31.597-32.983z"/>
			<path style="fill:#63635A;" d="M33.324-32.948c-0.027,0-0.063,0-0.094,0.002c-0.031,0-0.08,0.016-0.127,0.041
				c-0.059,0.021-0.107,0.055-0.152,0.092c-0.043,0.039-0.086,0.096-0.137,0.176c-0.041,0.088-0.07,0.178-0.092,0.285v0.69h-0.135
				v-1.412h0.135v0.262v0.123c0.082-0.16,0.186-0.269,0.285-0.322c0.102-0.057,0.207-0.082,0.316-0.082V-32.948z"/>
			<path style="fill:#63635A;" d="M33.361-32.313c0.004,0.06,0.02,0.121,0.047,0.182c0.023,0.076,0.063,0.139,0.117,0.193
				c0.055,0.063,0.113,0.102,0.186,0.133c0.07,0.031,0.146,0.051,0.228,0.051c0.084,0,0.164-0.02,0.238-0.051
				c0.043-0.016,0.086-0.049,0.121-0.076v0.156c-0.027,0.018-0.053,0.025-0.074,0.031c-0.088,0.043-0.186,0.066-0.291,0.066
				c-0.102,0-0.201-0.023-0.291-0.063c-0.084-0.035-0.166-0.094-0.23-0.156c-0.068-0.07-0.109-0.146-0.15-0.234
				c-0.031-0.092-0.051-0.182-0.051-0.289v-0.002c0-0.096,0.019-0.191,0.051-0.281c0.041-0.084,0.082-0.166,0.154-0.236
				c0.064-0.068,0.15-0.123,0.232-0.164c0.09-0.041,0.188-0.063,0.291-0.063c0.045,0,0.09,0.014,0.148,0.025
				c0.035,0.016,0.09,0.043,0.152,0.078c0.053,0.039,0.096,0.09,0.152,0.142c0.039,0.057,0.072,0.135,0.098,0.233
				c0.029,0.096,0.043,0.203,0.043,0.324H33.361z M33.933-32.983c-0.088,0-0.154,0.02-0.232,0.047
				c-0.072,0.031-0.131,0.078-0.186,0.129c-0.045,0.061-0.084,0.121-0.107,0.191c-0.027,0.066-0.043,0.117-0.047,0.182h1.031
				c0-0.033-0.014-0.102-0.041-0.189c-0.018-0.061-0.043-0.113-0.078-0.156c-0.027-0.045-0.049-0.078-0.074-0.104
				c-0.033-0.021-0.063-0.043-0.096-0.055c-0.037-0.02-0.064-0.025-0.084-0.035c-0.018,0-0.041-0.008-0.063-0.008
				C33.951-32.981,33.939-32.983,33.933-32.983z"/>
		</g>
	</g>
	<polygon style="fill:#63635A;" points="9.124,-32.09 -2.126,-32.059 -2.126,-32.204 9.124,-32.233 	"/>
</g>
<g>
	<path style="fill:#3A3A3A;" d="M1.904-42.026h1.222l2.73,7.51H4.219l-0.503-1.547H0.789L0.31-34.516h-1.638l2.489-7.01
		C1.294-41.86,1.54-42.026,1.904-42.026z M2.253-40.52l-1.048,3.19h2.097L2.253-40.52z"/>
	<path style="fill:#3A3A3A;" d="M7.691-41.307v1.75c0.159-0.281,0.395-0.504,0.7-0.68c0.262-0.148,0.583-0.217,0.96-0.217
		c0.686,0,1.245,0.283,1.684,0.851c0.436,0.565,0.653,1.307,0.653,2.205c0,0.9-0.218,1.635-0.653,2.205
		c-0.221,0.275-0.514,0.475-0.887,0.6c-0.37,0.125-0.739,0.188-1.102,0.188c-0.697,0-1.345-0.186-1.945-0.543
		c-0.599-0.369-0.897-1.066-0.897-2.102v-5.002h0.744c0.203,0,0.38,0.074,0.526,0.221C7.618-41.69,7.691-41.512,7.691-41.307z
		 M10.183-37.461c0-0.523-0.108-0.932-0.328-1.226c-0.218-0.303-0.517-0.457-0.896-0.457c-0.406,0-0.719,0.149-0.94,0.438
		c-0.217,0.303-0.327,0.723-0.327,1.246c0,0.609,0.103,1.055,0.306,1.328c0.219,0.309,0.525,0.461,0.916,0.461
		c0.411,0,0.723-0.152,0.941-0.461C10.075-36.44,10.183-36.883,10.183-37.461z"/>
	<path style="fill:#3A3A3A;" d="M11.822-36.44h1.482c0.016,0.295,0.124,0.514,0.332,0.66c0.214,0.145,0.507,0.217,0.872,0.217
		c0.261,0,0.489-0.051,0.678-0.154c0.176-0.102,0.259-0.24,0.259-0.416c0-0.26-0.303-0.459-0.916-0.59
		c-0.261-0.043-0.458-0.086-0.59-0.129c-0.768-0.189-1.288-0.416-1.549-0.674c-0.292-0.268-0.438-0.615-0.438-1.051
		c0-0.553,0.213-1.014,0.632-1.373c0.437-0.338,1.009-0.504,1.705-0.504c0.758,0,1.363,0.166,1.813,0.504
		c0.424,0.359,0.648,0.838,0.681,1.414h-0.945c-0.274,0-0.483-0.119-0.631-0.367c-0.057-0.063-0.116-0.121-0.173-0.176
		c-0.176-0.131-0.418-0.199-0.722-0.199c-0.292,0-0.51,0.045-0.657,0.133c-0.129,0.084-0.194,0.219-0.194,0.391
		c0,0.234,0.375,0.432,1.133,0.594c0.09,0.029,0.165,0.051,0.232,0.065c0.065,0.018,0.124,0.019,0.187,0.019
		c0.737,0.191,1.255,0.412,1.547,0.656c0.277,0.262,0.417,0.611,0.417,1.051c0,0.641-0.233,1.137-0.702,1.484
		c-0.437,0.316-1.088,0.48-1.963,0.48c-0.833,0-1.451-0.168-1.855-0.502c-0.424-0.34-0.634-0.822-0.634-1.463V-36.44z"/>
	<path style="fill:#3A3A3A;" d="M19.79-34.516c-0.479,0.031-0.998,0.021-1.561-0.021c-0.56-0.045-0.838-0.4-0.838-1.066v-6.422
		h0.787c0.186,0,0.354,0.072,0.502,0.215c0.146,0.149,0.217,0.322,0.217,0.524v0.984h0.893v0.307c0,0.217-0.066,0.396-0.215,0.535
		c-0.146,0.141-0.32,0.205-0.525,0.205h-0.153v3.234c0,0.248,0.145,0.375,0.437,0.375h0.456V-34.516z"/>
	<path style="fill:#3A3A3A;" d="M19.922-34.516v-2.814c0-0.568,0.084-1.045,0.249-1.43c0.172-0.389,0.399-0.695,0.691-0.928
		c0.277-0.221,0.6-0.381,0.973-0.482c0.369-0.104,0.752-0.152,1.146-0.152c0.029,0,0.066,0,0.107,0c0.043,0,0.082,0,0.107,0v1.549
		h-0.5c-0.424,0-0.734,0.102-0.939,0.307c-0.201,0.205-0.307,0.521-0.307,0.961v2.99H19.922z"/>
	<path style="fill:#3A3A3A;" d="M27.064-34.756c-0.305,0.164-0.629,0.26-0.971,0.295c-0.346,0.039-0.645,0.057-0.906,0.057
		c-0.523,0-0.982-0.145-1.375-0.43c-0.396-0.281-0.59-0.754-0.59-1.404c0-0.613,0.176-1.051,0.533-1.315
		c0.355-0.258,0.815-0.432,1.363-0.523c0.074,0,0.166-0.006,0.264-0.033c0.105-0.02,0.221-0.041,0.35-0.051
		c0.641-0.088,0.963-0.281,0.963-0.568c0-0.223-0.115-0.359-0.34-0.428c-0.226-0.064-0.434-0.1-0.623-0.1
		c-0.199,0-0.387,0.033-0.545,0.09c-0.162,0.057-0.275,0.17-0.348,0.328h-1.465c0.057-0.453,0.264-0.822,0.613-1.111
		c0.389-0.338,0.951-0.504,1.68-0.504c0.812,0,1.428,0.137,1.836,0.412c0.422,0.291,0.635,0.701,0.635,1.225v1.992
		c0,0.576-0.107,1.033-0.316,1.357C27.603-35.139,27.355-34.903,27.064-34.756z M26.714-37.442
		c-0.199,0.102-0.488,0.197-0.852,0.283l-0.5,0.109c-0.262,0.072-0.451,0.166-0.566,0.283c-0.101,0.164-0.156,0.324-0.156,0.48
		c0,0.223,0.068,0.395,0.199,0.524c0.131,0.119,0.32,0.174,0.568,0.174c0.406,0,0.721-0.111,0.959-0.346
		c0.233-0.232,0.348-0.555,0.348-0.959V-37.442z"/>
	<path style="fill:#3A3A3A;" d="M32.394-36.303h1.092c-0.16,0.609-0.463,1.074-0.916,1.397c-0.449,0.334-1.02,0.502-1.701,0.502
		c-0.834,0-1.482-0.271-1.947-0.809c-0.467-0.523-0.701-1.275-0.701-2.248c0-0.932,0.23-1.662,0.68-2.185
		c0.463-0.541,1.115-0.807,1.943-0.807c0.871,0,1.551,0.26,2.033,0.785c0.26,0.32,0.449,0.691,0.56,1.115h-1.519
		c-0.078-0.148-0.148-0.256-0.221-0.328c-0.188-0.205-0.459-0.307-0.807-0.307c-0.322,0-0.582,0.101-0.787,0.307
		c-0.268,0.289-0.393,0.771-0.393,1.439c0,0.672,0.125,1.143,0.393,1.42c0.185,0.23,0.473,0.35,0.848,0.35
		c0.248,0,0.461-0.051,0.637-0.152c0.045-0.016,0.082-0.037,0.123-0.078c0.029-0.037,0.074-0.074,0.121-0.119
		c0.025-0.041,0.086-0.102,0.17-0.176C32.085-36.27,32.218-36.303,32.394-36.303z"/>
	<path style="fill:#3A3A3A;" d="M36.306-34.516c-0.48,0.031-1.004,0.021-1.563-0.021c-0.561-0.045-0.844-0.4-0.844-1.066v-6.422
		h0.789c0.191,0,0.359,0.072,0.5,0.215c0.15,0.149,0.219,0.322,0.219,0.524v0.984h0.898v0.307c0,0.217-0.076,0.396-0.221,0.535
		c-0.147,0.141-0.318,0.205-0.525,0.205h-0.152v3.234c0,0.248,0.148,0.375,0.438,0.375h0.461V-34.516z"/>
</g>
<g>
	
		<radialGradient id="SVGID_1_" cx="400.167" cy="340.7054" r="9.5129" fx="393.6602" fy="340.932" gradientTransform="matrix(1.4207 -0.0373 -0.0087 0.5058 -546.0773 -202.501)" gradientUnits="userSpaceOnUse">
		<stop  offset="0" style="stop-color:#272727"/>
		<stop  offset="0.0453" style="stop-color:#494949"/>
		<stop  offset="0.1107" style="stop-color:#737373"/>
		<stop  offset="0.1817" style="stop-color:#999999"/>
		<stop  offset="0.2572" style="stop-color:#B9B9B9"/>
		<stop  offset="0.3388" style="stop-color:#D3D3D3"/>
		<stop  offset="0.4287" style="stop-color:#E6E6E6"/>
		<stop  offset="0.5314" style="stop-color:#F4F4F4"/>
		<stop  offset="0.6579" style="stop-color:#FDFDFD"/>
		<stop  offset="0.8787" style="stop-color:#FFFFFF"/>
	</radialGradient>
	<path style="opacity:0.52;fill:url(#SVGID_1_);" d="M33.916-45.838c-0.039,2.662-6.579,5.025-14.569,5.246
		c-8.023,0.226-14.46-1.781-14.415-4.441c0.042-2.71,6.56-5.076,14.578-5.292C27.509-50.544,33.964-48.538,33.916-45.838z"/>
	
		<radialGradient id="SVGID_00000086657662165423793400000010000097517082454431_" cx="421.8405" cy="341.4812" r="9.5129" fx="415.3336" fy="341.7079" gradientTransform="matrix(-1.4207 -0.0373 0.0087 0.5058 613.0535 -202.501)" gradientUnits="userSpaceOnUse">
		<stop  offset="0" style="stop-color:#272727"/>
		<stop  offset="0.0453" style="stop-color:#494949"/>
		<stop  offset="0.1107" style="stop-color:#737373"/>
		<stop  offset="0.1817" style="stop-color:#999999"/>
		<stop  offset="0.2572" style="stop-color:#B9B9B9"/>
		<stop  offset="0.3388" style="stop-color:#D3D3D3"/>
		<stop  offset="0.4287" style="stop-color:#E6E6E6"/>
		<stop  offset="0.5314" style="stop-color:#F4F4F4"/>
		<stop  offset="0.6579" style="stop-color:#FDFDFD"/>
		<stop  offset="0.8787" style="stop-color:#FFFFFF"/>
	</radialGradient>
	<path style="opacity:0.52;fill:url(#SVGID_00000086657662165423793400000010000097517082454431_);" d="M2.276-46.254
		c0.039,2.662,6.579,5.025,14.569,5.246c8.023,0.226,14.461-1.781,14.415-4.441c-0.042-2.71-6.56-5.076-14.578-5.292
		C8.682-50.96,2.227-48.954,2.276-46.254z"/>
	
		<radialGradient id="SVGID_00000107580526262258736890000011871760794313380743_" cx="421.0268" cy="342.7379" r="9.5129" fx="421.1758" fy="343.1508" gradientTransform="matrix(-1.4207 -0.0373 0.0087 0.5058 613.0535 -202.501)" gradientUnits="userSpaceOnUse">
		<stop  offset="0" style="stop-color:#272727"/>
		<stop  offset="0.0453" style="stop-color:#494949"/>
		<stop  offset="0.1107" style="stop-color:#737373"/>
		<stop  offset="0.1817" style="stop-color:#999999"/>
		<stop  offset="0.2572" style="stop-color:#B9B9B9"/>
		<stop  offset="0.3388" style="stop-color:#D3D3D3"/>
		<stop  offset="0.4287" style="stop-color:#E6E6E6"/>
		<stop  offset="0.5314" style="stop-color:#F4F4F4"/>
		<stop  offset="0.6579" style="stop-color:#FDFDFD"/>
		<stop  offset="0.8787" style="stop-color:#FFFFFF"/>
	</radialGradient>
	<path style="opacity:0.52;fill:url(#SVGID_00000107580526262258736890000011871760794313380743_);" d="M2.276-44.254
		c0.039,2.662,6.579,5.025,14.569,5.246c8.023,0.226,14.461-1.781,14.415-4.441c-0.042-2.71-6.56-5.076-14.578-5.292
		C8.682-48.96,2.227-46.954,2.276-44.254z"/>
	<g>
		<path style="fill:#F70303;" d="M11.629-65.248c0,0,0.115,2.921,0.81,4.425c0.694,1.503,1.417,3.151,1.417,3.151
			s1.822-1.606,2.348-2.227c0.525-0.62,1.007-1.562,1.007-1.562l-5.465-3.904"/>
		<path style="fill:#F70303;" d="M22.791-65.479c0,0-0.115,2.921-0.81,4.424c-0.694,1.504-1.417,3.152-1.417,3.152
			s-1.822-1.607-2.348-2.227c-0.525-0.619-1.007-1.562-1.007-1.562l5.465-3.904"/>
		<g>
			<path style="fill:#3A3A3A;" d="M16.19-72.213c0.287-0.256,0.756-0.247,1.043,0.021c0.282,0.269,0.278,0.7-0.009,0.959
				c-0.031,0.025-11.021,9.593-6.753,25.544c0.098,0.359-0.144,0.725-0.541,0.805c-0.395,0.086-0.793-0.143-0.891-0.504
				C4.569-62.094,16.155-72.182,16.19-72.213L16.19-72.213z"/>
			<path style="fill:#3A3A3A;" d="M26.18-68.194c0.373-0.143,0.805,0.02,0.966,0.365c0.162,0.342-0.009,0.735-0.379,0.879
				c-0.043,0.017-14.09,5.285-16.31,21.504c-0.048,0.371-0.417,0.627-0.819,0.578c-0.404-0.053-0.691-0.394-0.641-0.764
				C11.323-62.62,26.137-68.177,26.18-68.194L26.18-68.194z"/>
			<path style="fill:#3A3A3A;" d="M16.458-71.224c-0.307-0.249-0.34-0.675-0.074-0.953c0.266-0.278,0.731-0.299,1.038-0.05
				c0.033,0.026,12.287,9.735,8.943,26.565c-0.069,0.367-0.454,0.605-0.853,0.533c-0.401-0.068-0.666-0.426-0.597-0.789
				C28.11-61.991,16.491-71.194,16.458-71.224L16.458-71.224z"/>
			<path style="fill:#3A3A3A;" d="M6.821-66.822c-0.383-0.128-0.586-0.514-0.451-0.864c0.136-0.352,0.557-0.528,0.939-0.4
				c0.043,0.013,15.262,4.966,18.906,21.832c0.079,0.365-0.183,0.719-0.58,0.785c-0.398,0.064-0.786-0.176-0.864-0.543
				C21.295-62.115,6.864-66.809,6.821-66.822L6.821-66.822z"/>
			<path style="fill:#3A3A3A;" d="M18.049-46.149c0.307,0.248,0.34,0.672,0.074,0.949c-0.266,0.279-0.731,0.303-1.037,0.055
				c-0.028-0.019-8.883-7.037-6.47-19.186c0.07-0.368,0.455-0.605,0.854-0.538c0.401,0.073,0.667,0.426,0.597,0.793
				C9.802-52.686,18.026-46.17,18.049-46.149L18.049-46.149z"/>
			<path style="fill:#3A3A3A;" d="M24.598-49.469c0.382,0.131,0.581,0.52,0.442,0.869c-0.139,0.352-0.559,0.527-0.941,0.398
				c-0.033-0.014-11.001-3.688-13.505-15.887c-0.074-0.366,0.189-0.718,0.591-0.783c0.397-0.063,0.782,0.184,0.856,0.553
				C14.387-52.888,24.569-49.479,24.598-49.469L24.598-49.469z"/>
			<path style="fill:#3A3A3A;" d="M18.253-45.161c-0.29,0.258-0.76,0.248-1.046-0.023c-0.283-0.269-0.278-0.695,0.013-0.955
				c0.019-0.019,7.798-6.791,4.771-18.093c-0.098-0.364,0.146-0.725,0.541-0.81c0.395-0.084,0.792,0.145,0.89,0.508
				C26.648-52.472,18.278-45.184,18.253-45.161L18.253-45.161z"/>
			<path style="fill:#3A3A3A;" d="M10.76-47.854c-0.375,0.139-0.805-0.025-0.963-0.371c-0.16-0.342,0.012-0.736,0.387-0.879
				c0.031-0.008,10.01-3.652,11.704-15.131c0.051-0.368,0.422-0.624,0.826-0.57c0.403,0.054,0.687,0.398,0.631,0.767
				C21.541-51.791,10.791-47.866,10.76-47.854L10.76-47.854z"/>
		</g>
	</g>
</g>
</svg>
